# xmcd
# 
# Track frame offsets:
#     150
#     18712
#     33527
# 
# Disc length: 705
# 
# Revision: 2
# Processed by: cddbd v1.5.2PL0 Copyright (c) Steve Scherf et al.
# Submitted via: BonkEnc v1.0.8
# 
DISCID=2002bf03
DTITLE=YOSHII LOVINSON - CALL ME
DYEAR=2005
DGENRE=Rock
TTITLE0=CALL ME
TTITLE1=MUDDY WATER
TTITLE2=FINAL COUNTDOWN
EXTD=YEAR: 2005
EXTT0=
EXTT1=
EXTT2=
PLAYORDER=
